<svg width="256" height="256" viewBox="0 0 256 256" fill="none" xmlns="http://www.w3.org/2000/svg">
<g clip-path="url(#clip0_699_316)">
<path d="M98.9231 38H62.4615C48.8462 38 38 48.8462 38 62.4615V99.1538C38 112.538 48.8462 123.385 62.4615 123.385H99.1538C112.538 123.385 123.385 112.538 123.385 98.9231V62.4615C123.385 48.8462 112.538 38 98.9231 38ZM157.077 123.385H193.769C207.154 123.385 218 112.538 218 98.9231V62.4615C218 48.8462 207.154 38 193.538 38H157.077C143.462 38 132.615 48.8462 132.615 62.4615V99.1538C132.615 112.538 143.462 123.385 157.077 123.385ZM98.9231 132.615H62.4615C48.8462 132.615 38 143.462 38 157.077V193.769C38 207.154 48.8462 218 62.4615 218H99.1538C112.538 218 123.385 207.154 123.385 193.538V157.077C123.385 143.462 112.538 132.615 98.9231 132.615Z" fill="#D1793F"/>
<path d="M175.308 218C198.886 218 218 198.886 218 175.308C218 151.729 198.886 132.615 175.308 132.615C151.729 132.615 132.615 151.729 132.615 175.308C132.615 198.886 151.729 218 175.308 218Z" fill="#D1793F"/>
</g>
<defs>
<clipPath id="clip0_699_316">
<rect width="180" height="180" fill="white" transform="translate(38 38)"/>
</clipPath>
</defs>
</svg>
