<svg width="150" height="150" viewBox="0 0 150 150" fill="none" xmlns="http://www.w3.org/2000/svg">
<g clip-path="url(#clip0_699_311)">
<path d="M58.8462 25H38.5897C31.0256 25 25 31.0256 25 38.5897V58.9744C25 66.4103 31.0256 72.4359 38.5897 72.4359H58.9744C66.4103 72.4359 72.4359 66.4103 72.4359 58.8462V38.5897C72.4359 31.0256 66.4103 25 58.8462 25ZM91.1538 72.4359H111.538C118.974 72.4359 125 66.4103 125 58.8462V38.5897C125 31.0256 118.974 25 111.41 25H91.1538C83.5897 25 77.5641 31.0256 77.5641 38.5897V58.9744C77.5641 66.4103 83.5897 72.4359 91.1538 72.4359ZM58.8462 77.5641H38.5897C31.0256 77.5641 25 83.5897 25 91.1538V111.538C25 118.974 31.0256 125 38.5897 125H58.9744C66.4103 125 72.4359 118.974 72.4359 111.41V91.1538C72.4359 83.5897 66.4103 77.5641 58.8462 77.5641Z" fill="#D1793F"/>
<path d="M101.282 125C114.381 125 125 114.381 125 101.282C125 88.1833 114.381 77.5645 101.282 77.5645C88.1831 77.5645 77.5642 88.1833 77.5642 101.282C77.5642 114.381 88.1831 125 101.282 125Z" fill="#D1793F"/>
</g>
<defs>
<clipPath id="clip0_699_311">
<rect width="100" height="100" fill="white" transform="translate(25 25)"/>
</clipPath>
</defs>
</svg>
