<svg width="100" height="100" viewBox="0 0 100 100" fill="none" xmlns="http://www.w3.org/2000/svg">
<g clip-path="url(#clip0_699_307)">
<path d="M33.8462 0H13.5897C6.02564 0 0 6.02564 0 13.5897V33.9744C0 41.4103 6.02564 47.4359 13.5897 47.4359H33.9744C41.4103 47.4359 47.4359 41.4103 47.4359 33.8462V13.5897C47.4359 6.02564 41.4103 0 33.8462 0ZM66.1538 47.4359H86.5385C93.9744 47.4359 100 41.4103 100 33.8462V13.5897C100 6.02564 93.9744 0 86.4103 0H66.1538C58.5897 0 52.5641 6.02564 52.5641 13.5897V33.9744C52.5641 41.4103 58.5897 47.4359 66.1538 47.4359ZM33.8462 52.5641H13.5897C6.02564 52.5641 0 58.5897 0 66.1538V86.5385C0 93.9744 6.02564 100 13.5897 100H33.9744C41.4103 100 47.4359 93.9744 47.4359 86.4103V66.1538C47.4359 58.5897 41.4103 52.5641 33.8462 52.5641Z" fill="black"/>
<path d="M76.2822 100C89.3812 100 100 89.3815 100 76.2824C100 63.1833 89.3812 52.5645 76.2822 52.5645C63.1831 52.5645 52.5642 63.1833 52.5642 76.2824C52.5642 89.3815 63.1831 100 76.2822 100Z" fill="black"/>
</g>
<defs>
<clipPath id="clip0_699_307">
<rect width="100" height="100" fill="white"/>
</clipPath>
</defs>
</svg>
