<svg width="663" height="60" viewBox="0 0 663 60" fill="none" xmlns="http://www.w3.org/2000/svg">
<g clip-path="url(#clip0_615_156)">
<path d="M8.25911 4.19028L0 10.2024L0.607287 11.417C2.06478 11.336 2.89474 13.2794 3.09717 17.247V50.2227C3.13765 54.919 4.39271 57.9757 6.86235 59.3927L14.4534 53.9879C16.6397 52.4494 18.6842 52.8745 20.587 55.2632C22.5304 57.6923 24.6964 59.1093 27.085 59.5142L35.2834 53.1377L34.4939 51.8016C33.1579 51.8016 32.1862 51.4372 31.5789 50.7085C31.0121 49.9798 29.9393 48.7044 28.3603 46.8826C26.8219 45.1012 24.6964 44.3725 21.9838 44.6964L13.7247 51.6802C13.1984 49.9393 12.9555 48.2794 12.996 46.7004L12.9352 13.3603C12.6113 8.50202 11.0526 5.44534 8.25911 4.19028ZM43.8462 4.55466L35.587 11.7206C38.1376 13.502 40.081 15.6275 41.417 18.0972C46.0729 15.0202 48.6842 13.0972 49.251 12.3279C49.8178 11.5182 49.6761 10.2024 48.8259 8.38057C47.9757 6.5587 46.3158 5.2834 43.8462 4.55466ZM36.8623 29.332C39.2105 27.996 39.9798 30.9717 39.17 38.2591C39.0486 46.9231 39.0891 52.2874 39.2915 54.3522C39.4534 56.417 40.668 58.1174 42.9352 59.4534L51.1943 51.7409L51.2551 50.6478C49.7571 50.7287 48.8259 49.6964 48.4615 47.5506C48.0972 45.4049 47.996 41.7206 48.1579 36.498C48.3198 31.2753 48.3603 27.8542 48.2794 26.2348C48.2389 24.6154 47.4899 22.996 46.0324 21.3765L36.1943 28.1781L36.8623 29.332ZM63.9474 21.1943L53.7449 28.6032L54.7166 30C56.7814 28.7449 57.6923 30.0202 57.4494 33.8259C57.166 45.8097 57.2065 52.7125 57.5709 54.5344C57.9352 56.3968 59.2713 58.0162 61.5789 59.3927L70.3846 51.8016V50.7692C68.5628 51.2146 67.3887 50.1822 66.8624 47.6721C66.3765 45.2024 66.2753 40.1215 66.5587 32.4292C70.1215 29.2308 73.1174 28.0972 75.5466 29.0283C78.0162 29.9595 79.2308 33.3198 79.1903 39.1093C79.0688 47.4089 79.1093 52.5506 79.3117 54.5344C79.4737 56.5182 80.6478 58.2389 82.834 59.6964L91.5182 51.9838L91.2753 51.0121C89.8583 51.4575 88.9069 50.4049 88.4211 47.8543C87.9352 45.3036 87.834 41.1134 88.1174 35.2834C88.3198 31.7206 88.0364 28.8664 87.2672 26.7206C86.498 24.5749 84.8583 23.0162 82.3482 22.0445C79.7976 21.0324 77.4494 21.0526 75.3036 22.1053C73.1579 23.1579 71.3765 24.2713 69.9595 25.4453C68.583 26.5789 67.5101 27.5911 66.7409 28.4818C66.9838 25.0405 66.0526 22.6113 63.9474 21.1943ZM123.097 0L114.96 5.58704C116.296 7.89474 116.883 13.8057 116.721 23.3198C114.696 22.2672 112.814 21.8219 111.073 21.9838C109.291 22.1053 107.328 22.8947 105.182 24.3522C103.036 25.8097 100.709 27.7733 98.1984 30.2429C95.6883 32.6721 94.0081 36.1134 93.1579 40.5668C92.3077 45.0202 93.1579 49.2713 95.7085 53.3198C98.2591 57.3684 101.032 59.4737 104.028 59.6356C107.024 59.7571 111.457 56.7814 117.328 50.7085C117.328 54.6356 119.049 57.6518 122.49 59.7571L129.717 53.6235C126.802 52.0445 125.587 42.834 126.073 25.9919C126.559 9.10931 125.567 0.445344 123.097 0ZM102.389 30.3644C106.68 30 109.676 31.8219 111.377 35.83L116.842 31.0931V33.5223L117.024 34.5547V47.3684L116.538 47.5506C115.769 49.251 113.947 50.2024 111.073 50.4049C108.158 50.6478 105.547 48.8259 103.239 44.9393C100.931 41.0931 100.648 36.2348 102.389 30.3644ZM150.547 21.6194C146.457 21.4575 142.267 22.7935 137.976 25.6275C133.644 28.4615 132.713 32.247 135.182 36.9838L144.474 31.5789C141.721 27.3684 142.895 25.2024 147.996 25.081C153.097 24.9595 155.344 28.4008 154.737 35.4049L141.316 35.6478L130.992 47.247C130.709 50.6478 131.903 53.5425 134.575 55.9312C137.287 58.3198 139.98 59.4534 142.652 59.332C145.283 59.2105 147.551 58.583 149.453 57.4494C151.316 56.2753 153.158 54.6154 154.98 52.4696C155.668 56.3158 157.935 58.583 161.781 59.2713L169.13 51.3158L168.644 50.2834C166.377 50.7692 164.939 49.4939 164.332 46.4575L164.393 31.7611C164.069 27.9959 162.692 25.4049 160.263 23.9879C157.834 22.5709 154.595 21.7814 150.547 21.6194ZM139.433 42.2065H154.676V49.6761C153.664 50.9312 151.356 51.498 147.753 51.3765C144.109 51.2146 140.83 48.6437 137.915 43.664L139.433 42.2065ZM203.866 4.12955C201.518 4.69636 199.352 5.8502 197.368 7.59109C195.385 9.2915 193.704 11.0931 192.328 12.996C190.951 14.8988 190.223 17.2874 190.142 20.1619C190.061 23.0769 190.992 25.6275 192.935 27.8138C194.838 30.0405 198.138 32.2672 202.834 34.4939C207.571 36.7206 210.972 39.3725 213.036 42.4494C215.101 45.5263 215.223 47.915 213.401 49.6154C211.579 51.3158 209.352 51.9028 206.721 51.3765C204.049 50.8097 201.498 49.7976 199.069 48.3401C196.68 46.8421 194.919 44.7976 193.785 42.2065C192.692 39.6154 192.753 37.4494 193.968 35.7085L192.935 34.919L186.255 42.6316C185.729 44.8178 186.336 47.3077 188.077 50.1012C189.818 52.8947 192.267 55.2227 195.425 57.085C198.583 58.9474 202.045 59.6356 205.81 59.1498C209.615 58.6235 213.198 55.9919 216.559 51.2551C219.96 46.5182 221.619 42.7125 221.538 39.8381C221.457 36.9636 220.425 34.2915 218.441 31.8219C216.457 29.3522 212.591 26.9231 206.842 24.5344C201.134 22.1457 197.935 19.6559 197.247 17.0648C196.559 14.4332 197.389 12.7733 199.737 12.085C202.085 11.4372 204.514 11.8016 207.024 13.1781C209.534 14.5142 210.425 16.2753 209.696 18.4615L210.243 19.4332L216.802 12.1457C216.356 9.31174 214.676 7.12551 211.761 5.58704C208.846 4.04858 206.215 3.56275 203.866 4.12955ZM240.425 22.4089C238.846 23.0162 237.389 23.7652 236.053 24.6559C234.676 25.5466 233.279 26.5587 231.862 27.6923C221.903 35.3441 220.162 43.7854 226.64 53.0162C228.462 55.2429 230.324 56.8421 232.227 57.8138C234.089 58.7854 236.336 59.2915 238.968 59.332C241.599 59.332 244.292 58.0567 247.045 55.5061C249.798 52.9555 252.065 50.3644 253.846 47.7328L252.51 46.5789C251.822 47.4696 250.931 48.421 249.838 49.4332C248.704 50.4453 247.267 50.9514 245.526 50.9514C243.785 50.9919 241.883 50.3239 239.818 48.9474C233.623 45.5061 231.194 40.2024 232.53 33.0364C233.259 30 235.364 28.9474 238.846 29.8785C241.802 30.9717 243.846 33.2591 244.98 36.7409L253.117 30.3644C253.036 27.9352 252.126 26.0526 250.385 24.7166C248.644 23.3401 246.943 22.4494 245.283 22.0445C243.583 21.6802 241.964 21.8016 240.425 22.4089ZM263.684 0.728744L256.579 6.43725C257.267 7.85425 257.652 9.75708 257.733 12.1457C257.652 38.3401 257.854 52.4089 258.34 54.3522C258.826 56.336 259.798 58.2186 261.255 60L270.061 51.8016V50.7692C268.239 51.2146 267.065 50.1822 266.538 47.6721C266.053 45.2024 265.972 40.1215 266.296 32.4292C270.344 29.3117 273.583 28.2186 276.012 29.1498C278.482 30.081 279.696 33.4413 279.656 39.2308C279.534 47.5304 279.575 52.6721 279.777 54.6559C279.939 56.6397 281.113 58.3603 283.3 59.8178L291.741 52.2267V51.1336C290.324 51.5789 289.372 50.5263 288.887 47.9757C288.401 45.4251 288.3 41.2348 288.583 35.4049C288.785 31.8421 288.502 28.9879 287.733 26.8421C286.964 24.6964 285.324 23.1377 282.814 22.166C280.263 21.1538 277.915 21.1741 275.769 22.2267C273.623 23.2794 271.842 24.3927 270.425 25.5668C269.049 26.7004 267.713 27.6721 266.417 28.4818L266.296 5.95142C265.931 3.56275 265.061 1.82186 263.684 0.728744ZM303.887 21.1943L293.684 28.6032L294.656 30C296.721 28.7449 297.632 30.0202 297.389 33.8259C297.105 45.8097 297.146 52.7125 297.51 54.5344C297.874 56.3968 299.231 58.0162 301.579 59.3927L310.324 51.8016V50.7692C308.502 51.2146 307.328 50.1822 306.802 47.6721C306.316 45.2024 306.235 40.1215 306.559 32.4292C310.081 29.2308 313.077 28.0972 315.547 29.0283C317.976 29.9595 319.17 33.3198 319.13 39.1093C319.008 47.4089 319.049 52.5506 319.251 54.5344C319.453 56.5182 320.648 58.2389 322.834 59.6964L331.457 51.9838L331.215 51.0121C329.271 51.5385 328.36 45.3441 328.482 32.4292C332.045 29.2308 335.061 28.0972 337.53 29.0283C339.96 29.9595 341.174 33.3198 341.174 39.1093C341.012 47.4089 341.032 52.5506 341.235 54.5344C341.437 56.5182 342.632 58.2389 344.818 59.6964L353.441 51.9838L353.259 51.0121C351.802 51.4575 350.83 50.4049 350.344 47.8543C349.899 45.3036 349.818 41.1134 350.101 35.2834C350.263 31.7206 349.96 28.8664 349.19 26.7206C348.421 24.5749 346.781 23.0162 344.271 22.0445C341.761 21.0324 339.413 21.0526 337.227 22.1053C335.081 23.1579 333.32 24.2308 331.943 25.3239C330.526 26.3765 329.231 27.5506 328.057 28.8462C328.057 28.2389 327.713 27.1862 327.024 25.6883C326.377 24.2308 324.798 23.0162 322.287 22.0445C319.737 21.0324 317.389 21.0526 315.243 22.1053C313.097 23.1579 311.316 24.2713 309.899 25.4453C308.522 26.5789 307.449 27.5911 306.68 28.4818C306.923 25.0405 305.992 22.6113 303.887 21.1943ZM362.672 4.55466L354.352 11.7206C356.943 13.502 358.887 15.6275 360.182 18.0972C364.838 15.0202 367.449 13.0972 368.016 12.3279C368.583 11.5182 368.441 10.2024 367.591 8.38057C366.741 6.5587 365.101 5.2834 362.672 4.55466ZM355.628 29.332C357.976 27.996 358.765 30.9717 357.996 38.2591C357.834 46.9231 357.854 52.2874 358.057 54.3522C358.259 56.417 359.494 58.1174 361.761 59.4534L370.02 51.7409V50.6478C368.522 50.7287 367.591 49.6964 367.227 47.5506C366.903 45.4049 366.822 41.7206 366.984 36.498C367.105 31.2753 367.146 27.8542 367.105 26.2348C367.024 24.6154 366.255 22.996 364.798 21.3765L354.96 28.1781L355.628 29.332ZM402.996 0L394.858 5.58704C396.154 7.89474 396.721 13.8057 396.559 23.3198C394.534 22.2672 392.652 21.8219 390.911 21.9838C389.17 22.1053 387.227 22.8947 385.081 24.3522C382.935 25.8097 380.607 27.7733 378.097 30.2429C375.587 32.6721 373.907 36.1134 373.057 40.5668C372.206 45.0202 373.057 49.2713 375.607 53.3198C378.158 57.3684 380.931 59.4737 383.927 59.6356C386.923 59.7571 391.356 56.7814 397.227 50.7085C397.227 54.6356 398.947 57.6518 402.389 59.7571L409.615 53.6235C406.7 52.0445 405.486 42.834 405.972 25.9919C406.417 9.10931 405.425 0.445344 402.996 0ZM382.227 30.3644C386.559 30 389.575 31.8219 391.275 35.83L396.741 31.0931V33.5223L396.923 34.5547V47.3684L396.437 47.5506C395.628 49.251 393.785 50.2024 390.911 50.4049C388.036 50.6478 385.445 48.8259 383.138 44.9393C380.789 41.0931 380.486 36.2348 382.227 30.3644ZM424.798 4.67611L417.267 10.6275C418.887 10.4656 419.332 14.9595 418.603 24.1093L415.931 24.17L409.919 32.3684L411.255 33.5223C412.551 32.0648 414.919 31.417 418.36 31.5789C417.874 43.5223 417.895 50.6883 418.421 53.0769C418.907 55.4251 420.526 57.5506 423.279 59.4534C427.085 57.5101 431.64 54.3522 436.943 49.9798L436.154 46.7611C430.202 49.7976 427.065 50.0405 426.741 47.4899C426.377 44.9798 426.336 39.6761 426.619 31.5789H431.842L437.247 24.8381L436.943 23.9879L426.802 23.8664L427.227 9.95951C426.943 7.57085 426.134 5.80972 424.798 4.67611ZM460.324 4.12955L454.555 12.753L455.466 13.4211C456.923 12.166 462.733 11.8016 472.895 12.3279C471.437 13.8664 470.142 15.3036 469.008 16.6397L469.19 52.1053C470.202 56.3563 472.449 58.8462 475.931 59.5749L482.915 53.2591L482.247 51.8016C480.142 51.8826 478.846 49.7773 478.36 45.4858L478.543 12.2065H487.227L494.575 4.97976L493.785 4.12955H460.324ZM503.441 21.1943L493.239 28.6032L494.211 30C496.275 28.7449 497.186 30.0202 496.943 33.8259C496.66 45.8097 496.7 52.7125 497.065 54.5344C497.429 56.3968 498.785 58.0162 501.134 59.3927L509.939 51.8016V50.7692C508.077 51.2146 506.883 50.1822 506.356 47.6721C505.87 45.2024 505.789 40.1215 506.113 32.4292C509.636 29.2308 512.733 29.5547 515.405 33.4008L522.935 26.4777C519.777 22.2672 516.923 20.6478 514.372 21.6194C511.822 22.5506 509.109 24.8381 506.235 28.4818C506.518 25.0405 505.587 22.6113 503.441 21.1943ZM541.093 21.6194C537.004 21.4575 532.814 22.7935 528.522 25.6275C524.19 28.4615 523.279 32.247 525.789 36.9838L535.02 31.5789C532.267 27.3684 533.462 25.2024 538.603 25.081C543.704 24.9595 545.931 28.4008 545.283 35.4049L531.862 35.6478L521.538 47.247C521.255 50.6478 522.47 53.5425 525.182 55.9312C527.854 58.3198 530.526 59.4534 533.198 59.332C535.87 59.2105 538.138 58.583 540 57.4494C541.903 56.2753 543.765 54.6154 545.587 52.4696C546.235 56.3158 548.482 58.583 552.328 59.2713L559.676 51.3158L559.19 50.2834C556.964 50.7692 555.547 49.4939 554.939 46.4575V31.7611C554.656 27.9959 553.3 25.4049 550.87 23.9879C548.401 22.5709 545.142 21.7814 541.093 21.6194ZM529.98 42.2065H545.223V49.6761C544.251 50.9312 541.943 51.498 538.3 51.3765C534.696 51.2146 531.417 48.6437 528.462 43.664L529.98 42.2065ZM591.498 0L583.421 5.58704C584.717 7.89474 585.283 13.8057 585.121 23.3198C583.097 22.2672 581.215 21.8219 579.474 21.9838C577.733 22.1053 575.789 22.8947 573.644 24.3522C571.498 25.8097 569.17 27.7733 566.66 30.2429C564.15 32.6721 562.47 36.1134 561.619 40.5668C560.729 45.0202 561.579 49.2713 564.17 53.3198C566.721 57.3684 569.494 59.4737 572.49 59.6356C575.486 59.7571 579.919 56.7814 585.789 50.7085C585.789 54.6356 587.51 57.6518 590.951 59.7571L598.178 53.6235C595.263 52.0445 594.049 42.834 594.534 25.9919C594.98 9.10931 593.968 0.445344 591.498 0ZM570.789 30.3644C575.121 30 578.138 31.8219 579.838 35.83L585.304 31.0931V33.5223L585.486 34.5547V47.3684L584.939 47.5506C584.17 49.251 582.348 50.2024 579.474 50.4049C576.599 50.6478 574.008 48.8259 571.7 44.9393C569.352 41.0931 569.049 36.2348 570.789 30.3644ZM619.312 22.2874C615.02 21.5992 610.992 22.9352 607.227 26.2955C603.462 29.6559 601.053 33.583 600 38.0769C598.947 42.5708 599.271 46.7409 600.972 50.587C602.672 54.4737 605.83 57.2267 610.445 58.8462C614.211 60.1012 618.138 59.2105 622.227 56.1741C626.275 53.1377 628.947 50.2834 630.243 47.6113L628.968 46.6397C623.381 50.4858 618.927 51.7611 615.607 50.4656C612.328 49.17 610.385 47.6923 609.777 46.0324L618.826 40.1417C624.656 36.5385 627.267 32.8138 626.66 28.9676C626.093 25.1619 623.644 22.9352 619.312 22.2874ZM606.68 34.6761C606.599 32.6518 607.308 30.9109 608.806 29.4534C610.304 27.9555 612.287 27.9555 614.757 29.4534C617.227 30.9514 618.279 32.9352 617.915 35.4049C617.51 37.8745 614.393 40.668 608.563 43.7854C607.915 42.4089 607.449 41.0526 607.166 39.7166C606.883 38.3806 606.721 36.7004 606.68 34.6761ZM649.251 21.8016C646.376 22.247 644.028 23.0567 642.206 24.2308C640.385 25.4049 638.826 26.6194 637.53 27.8745C636.235 29.17 635.263 30.9717 634.615 33.2793C633.968 35.587 634.555 37.5709 636.377 39.2308C638.239 40.8907 641.296 42.166 645.547 43.0567C649.798 43.9474 652.632 45.0202 654.049 46.2753C655.425 47.5708 656.174 48.7652 656.296 49.8583C656.417 50.9919 655.972 51.7611 654.96 52.166C653.947 52.5304 652.429 52.5708 650.405 52.2874C648.34 51.9636 646.356 51.3158 644.453 50.3441C642.591 49.413 640.972 48.2591 639.595 46.8826C638.259 45.5466 638.158 44.2713 639.291 43.0567L638.381 42.5101L631.943 48.0364C631.417 49.4939 631.964 51.1741 633.583 53.0769C635.202 54.9798 637.267 56.4575 639.777 57.5101C642.247 58.5627 644.798 59.17 647.429 59.332C650.02 59.4939 652.611 58.7247 655.202 57.0243C657.794 55.3239 659.696 53.3603 660.911 51.1336C662.166 48.9474 662.652 46.7409 662.368 44.5142C662.126 42.2874 661.275 40.3441 659.818 38.6842C658.36 36.9838 655.263 35.4656 650.526 34.1296C645.749 32.7935 642.976 31.3563 642.206 29.8178C641.437 28.2389 642.024 27.3077 643.968 27.0243C645.911 26.7409 648.239 27.247 650.951 28.5425C653.624 29.8785 654.494 31.1336 653.563 32.3077L654.109 32.915L660.304 27.0243C659.899 25.1619 658.684 23.7247 656.66 22.7126C654.595 21.6599 652.125 21.3563 649.251 21.8016Z" fill="#D1793F"/>
</g>
<defs>
<clipPath id="clip0_615_156">
<rect width="662.447" height="60" fill="white"/>
</clipPath>
</defs>
</svg>
