<svg width="663" height="163" viewBox="0 0 663 163" fill="none" xmlns="http://www.w3.org/2000/svg">
<g clip-path="url(#clip0_615_138)">
<path d="M8.25911 107.19L0 113.202L0.607287 114.417C2.06478 114.336 2.89474 116.279 3.09717 120.247V153.223C3.13765 157.919 4.39271 160.976 6.86235 162.393L14.4534 156.988C16.6397 155.449 18.6842 155.874 20.587 158.263C22.5304 160.692 24.6964 162.109 27.085 162.514L35.2834 156.138L34.4939 154.802C33.1579 154.802 32.1862 154.437 31.5789 153.708C31.0121 152.98 29.9393 151.704 28.3603 149.883C26.8219 148.101 24.6964 147.372 21.9838 147.696L13.7247 154.68C13.1984 152.939 12.9555 151.279 12.996 149.7L12.9352 116.36C12.6113 111.502 11.0526 108.445 8.25911 107.19ZM43.8462 107.555L35.587 114.721C38.1376 116.502 40.081 118.628 41.417 121.097C46.0729 118.02 48.6842 116.097 49.251 115.328C49.8178 114.518 49.6761 113.202 48.8259 111.381C47.9757 109.559 46.3158 108.283 43.8462 107.555ZM36.8623 132.332C39.2105 130.996 39.9798 133.972 39.17 141.259C39.0486 149.923 39.0891 155.287 39.2915 157.352C39.4534 159.417 40.668 161.117 42.9352 162.453L51.1943 154.741L51.2551 153.648C49.7571 153.729 48.8259 152.696 48.4615 150.551C48.0972 148.405 47.996 144.721 48.1579 139.498C48.3198 134.275 48.3603 130.854 48.2794 129.235C48.2389 127.615 47.4899 125.996 46.0324 124.377L36.1943 131.178L36.8623 132.332ZM63.9474 124.194L53.7449 131.603L54.7166 133C56.7814 131.745 57.6923 133.02 57.4494 136.826C57.166 148.81 57.2065 155.713 57.5709 157.534C57.9352 159.397 59.2713 161.016 61.5789 162.393L70.3846 154.802V153.769C68.5628 154.215 67.3887 153.182 66.8624 150.672C66.3765 148.202 66.2753 143.121 66.5587 135.429C70.1215 132.231 73.1174 131.097 75.5466 132.028C78.0162 132.96 79.2308 136.32 79.1903 142.109C79.0688 150.409 79.1093 155.551 79.3117 157.534C79.4737 159.518 80.6478 161.239 82.834 162.696L91.5182 154.984L91.2753 154.012C89.8583 154.457 88.9069 153.405 88.4211 150.854C87.9352 148.304 87.834 144.113 88.1174 138.283C88.3198 134.721 88.0364 131.866 87.2672 129.721C86.498 127.575 84.8583 126.016 82.3482 125.045C79.7976 124.032 77.4494 124.053 75.3036 125.105C73.1579 126.158 71.3765 127.271 69.9595 128.445C68.583 129.579 67.5101 130.591 66.7409 131.482C66.9838 128.04 66.0526 125.611 63.9474 124.194ZM123.097 103L114.96 108.587C116.296 110.895 116.883 116.806 116.721 126.32C114.696 125.267 112.814 124.822 111.073 124.984C109.291 125.105 107.328 125.895 105.182 127.352C103.036 128.81 100.709 130.773 98.1984 133.243C95.6883 135.672 94.0081 139.113 93.1579 143.567C92.3077 148.02 93.1579 152.271 95.7085 156.32C98.2591 160.368 101.032 162.474 104.028 162.636C107.024 162.757 111.457 159.781 117.328 153.708C117.328 157.636 119.049 160.652 122.49 162.757L129.717 156.623C126.802 155.045 125.587 145.834 126.073 128.992C126.559 112.109 125.567 103.445 123.097 103ZM102.389 133.364C106.68 133 109.676 134.822 111.377 138.83L116.842 134.093V136.522L117.024 137.555V150.368L116.538 150.551C115.769 152.251 113.947 153.202 111.073 153.405C108.158 153.648 105.547 151.826 103.239 147.939C100.931 144.093 100.648 139.235 102.389 133.364ZM150.547 124.619C146.457 124.457 142.267 125.794 137.976 128.628C133.644 131.462 132.713 135.247 135.182 139.984L144.474 134.579C141.721 130.368 142.895 128.202 147.996 128.081C153.097 127.96 155.344 131.401 154.737 138.405L141.316 138.648L130.992 150.247C130.709 153.648 131.903 156.543 134.575 158.931C137.287 161.32 139.98 162.453 142.652 162.332C145.283 162.211 147.551 161.583 149.453 160.449C151.316 159.275 153.158 157.615 154.98 155.47C155.668 159.316 157.935 161.583 161.781 162.271L169.13 154.316L168.644 153.283C166.377 153.769 164.939 152.494 164.332 149.457L164.393 134.761C164.069 130.996 162.692 128.405 160.263 126.988C157.834 125.571 154.595 124.781 150.547 124.619ZM139.433 145.206H154.676V152.676C153.664 153.931 151.356 154.498 147.753 154.377C144.109 154.215 140.83 151.644 137.915 146.664L139.433 145.206ZM203.866 107.13C201.518 107.696 199.352 108.85 197.368 110.591C195.385 112.291 193.704 114.093 192.328 115.996C190.951 117.899 190.223 120.287 190.142 123.162C190.061 126.077 190.992 128.628 192.935 130.814C194.838 133.04 198.138 135.267 202.834 137.494C207.571 139.721 210.972 142.372 213.036 145.449C215.101 148.526 215.223 150.915 213.401 152.615C211.579 154.316 209.352 154.903 206.721 154.377C204.049 153.81 201.498 152.798 199.069 151.34C196.68 149.842 194.919 147.798 193.785 145.206C192.692 142.615 192.753 140.449 193.968 138.709L192.935 137.919L186.255 145.632C185.729 147.818 186.336 150.308 188.077 153.101C189.818 155.895 192.267 158.223 195.425 160.085C198.583 161.947 202.045 162.636 205.81 162.15C209.615 161.623 213.198 158.992 216.559 154.255C219.96 149.518 221.619 145.713 221.538 142.838C221.457 139.964 220.425 137.291 218.441 134.822C216.457 132.352 212.591 129.923 206.842 127.534C201.134 125.146 197.935 122.656 197.247 120.065C196.559 117.433 197.389 115.773 199.737 115.085C202.085 114.437 204.514 114.802 207.024 116.178C209.534 117.514 210.425 119.275 209.696 121.462L210.243 122.433L216.802 115.146C216.356 112.312 214.676 110.126 211.761 108.587C208.846 107.049 206.215 106.563 203.866 107.13ZM240.425 125.409C238.846 126.016 237.389 126.765 236.053 127.656C234.676 128.547 233.279 129.559 231.862 130.692C221.903 138.344 220.162 146.785 226.64 156.016C228.462 158.243 230.324 159.842 232.227 160.814C234.089 161.785 236.336 162.291 238.968 162.332C241.599 162.332 244.292 161.057 247.045 158.506C249.798 155.955 252.065 153.364 253.846 150.733L252.51 149.579C251.822 150.47 250.931 151.421 249.838 152.433C248.704 153.445 247.267 153.951 245.526 153.951C243.785 153.992 241.883 153.324 239.818 151.947C233.623 148.506 231.194 143.202 232.53 136.036C233.259 133 235.364 131.947 238.846 132.879C241.802 133.972 243.846 136.259 244.98 139.741L253.117 133.364C253.036 130.935 252.126 129.053 250.385 127.717C248.644 126.34 246.943 125.449 245.283 125.045C243.583 124.68 241.964 124.802 240.425 125.409ZM263.684 103.729L256.579 109.437C257.267 110.854 257.652 112.757 257.733 115.146C257.652 141.34 257.854 155.409 258.34 157.352C258.826 159.336 259.798 161.219 261.255 163L270.061 154.802V153.769C268.239 154.215 267.065 153.182 266.538 150.672C266.053 148.202 265.972 143.121 266.296 135.429C270.344 132.312 273.583 131.219 276.012 132.15C278.482 133.081 279.696 136.441 279.656 142.231C279.534 150.53 279.575 155.672 279.777 157.656C279.939 159.64 281.113 161.36 283.3 162.818L291.741 155.227V154.134C290.324 154.579 289.372 153.526 288.887 150.976C288.401 148.425 288.3 144.235 288.583 138.405C288.785 134.842 288.502 131.988 287.733 129.842C286.964 127.696 285.324 126.138 282.814 125.166C280.263 124.154 277.915 124.174 275.769 125.227C273.623 126.279 271.842 127.393 270.425 128.567C269.049 129.7 267.713 130.672 266.417 131.482L266.296 108.951C265.931 106.563 265.061 104.822 263.684 103.729ZM303.887 124.194L293.684 131.603L294.656 133C296.721 131.745 297.632 133.02 297.389 136.826C297.105 148.81 297.146 155.713 297.51 157.534C297.874 159.397 299.231 161.016 301.579 162.393L310.324 154.802V153.769C308.502 154.215 307.328 153.182 306.802 150.672C306.316 148.202 306.235 143.121 306.559 135.429C310.081 132.231 313.077 131.097 315.547 132.028C317.976 132.96 319.17 136.32 319.13 142.109C319.008 150.409 319.049 155.551 319.251 157.534C319.453 159.518 320.648 161.239 322.834 162.696L331.457 154.984L331.215 154.012C329.271 154.538 328.36 148.344 328.482 135.429C332.045 132.231 335.061 131.097 337.53 132.028C339.96 132.96 341.174 136.32 341.174 142.109C341.012 150.409 341.032 155.551 341.235 157.534C341.437 159.518 342.632 161.239 344.818 162.696L353.441 154.984L353.259 154.012C351.802 154.457 350.83 153.405 350.344 150.854C349.899 148.304 349.818 144.113 350.101 138.283C350.263 134.721 349.96 131.866 349.19 129.721C348.421 127.575 346.781 126.016 344.271 125.045C341.761 124.032 339.413 124.053 337.227 125.105C335.081 126.158 333.32 127.231 331.943 128.324C330.526 129.377 329.231 130.551 328.057 131.846C328.057 131.239 327.713 130.186 327.024 128.688C326.377 127.231 324.798 126.016 322.287 125.045C319.737 124.032 317.389 124.053 315.243 125.105C313.097 126.158 311.316 127.271 309.899 128.445C308.522 129.579 307.449 130.591 306.68 131.482C306.923 128.04 305.992 125.611 303.887 124.194ZM362.672 107.555L354.352 114.721C356.943 116.502 358.887 118.628 360.182 121.097C364.838 118.02 367.449 116.097 368.016 115.328C368.583 114.518 368.441 113.202 367.591 111.381C366.741 109.559 365.101 108.283 362.672 107.555ZM355.628 132.332C357.976 130.996 358.765 133.972 357.996 141.259C357.834 149.923 357.854 155.287 358.057 157.352C358.259 159.417 359.494 161.117 361.761 162.453L370.02 154.741V153.648C368.522 153.729 367.591 152.696 367.227 150.551C366.903 148.405 366.822 144.721 366.984 139.498C367.105 134.275 367.146 130.854 367.105 129.235C367.024 127.615 366.255 125.996 364.798 124.377L354.96 131.178L355.628 132.332ZM402.996 103L394.858 108.587C396.154 110.895 396.721 116.806 396.559 126.32C394.534 125.267 392.652 124.822 390.911 124.984C389.17 125.105 387.227 125.895 385.081 127.352C382.935 128.81 380.607 130.773 378.097 133.243C375.587 135.672 373.907 139.113 373.057 143.567C372.206 148.02 373.057 152.271 375.607 156.32C378.158 160.368 380.931 162.474 383.927 162.636C386.923 162.757 391.356 159.781 397.227 153.708C397.227 157.636 398.947 160.652 402.389 162.757L409.615 156.623C406.7 155.045 405.486 145.834 405.972 128.992C406.417 112.109 405.425 103.445 402.996 103ZM382.227 133.364C386.559 133 389.575 134.822 391.275 138.83L396.741 134.093V136.522L396.923 137.555V150.368L396.437 150.551C395.628 152.251 393.785 153.202 390.911 153.405C388.036 153.648 385.445 151.826 383.138 147.939C380.789 144.093 380.486 139.235 382.227 133.364ZM424.798 107.676L417.267 113.628C418.887 113.466 419.332 117.96 418.603 127.109L415.931 127.17L409.919 135.368L411.255 136.522C412.551 135.065 414.919 134.417 418.36 134.579C417.874 146.522 417.895 153.688 418.421 156.077C418.907 158.425 420.526 160.551 423.279 162.453C427.085 160.51 431.64 157.352 436.943 152.98L436.154 149.761C430.202 152.798 427.065 153.04 426.741 150.49C426.377 147.98 426.336 142.676 426.619 134.579H431.842L437.247 127.838L436.943 126.988L426.802 126.866L427.227 112.96C426.943 110.571 426.134 108.81 424.798 107.676ZM460.324 107.13L454.555 115.753L455.466 116.421C456.923 115.166 462.733 114.802 472.895 115.328C471.437 116.866 470.142 118.304 469.008 119.64L469.19 155.105C470.202 159.356 472.449 161.846 475.931 162.575L482.915 156.259L482.247 154.802C480.142 154.883 478.846 152.777 478.36 148.486L478.543 115.206H487.227L494.575 107.98L493.785 107.13H460.324ZM503.441 124.194L493.239 131.603L494.211 133C496.275 131.745 497.186 133.02 496.943 136.826C496.66 148.81 496.7 155.713 497.065 157.534C497.429 159.397 498.785 161.016 501.134 162.393L509.939 154.802V153.769C508.077 154.215 506.883 153.182 506.356 150.672C505.87 148.202 505.789 143.121 506.113 135.429C509.636 132.231 512.733 132.555 515.405 136.401L522.935 129.478C519.777 125.267 516.923 123.648 514.372 124.619C511.822 125.551 509.109 127.838 506.235 131.482C506.518 128.04 505.587 125.611 503.441 124.194ZM541.093 124.619C537.004 124.457 532.814 125.794 528.522 128.628C524.19 131.462 523.279 135.247 525.789 139.984L535.02 134.579C532.267 130.368 533.462 128.202 538.603 128.081C543.704 127.96 545.931 131.401 545.283 138.405L531.862 138.648L521.538 150.247C521.255 153.648 522.47 156.543 525.182 158.931C527.854 161.32 530.526 162.453 533.198 162.332C535.87 162.211 538.138 161.583 540 160.449C541.903 159.275 543.765 157.615 545.587 155.47C546.235 159.316 548.482 161.583 552.328 162.271L559.676 154.316L559.19 153.283C556.964 153.769 555.547 152.494 554.939 149.457V134.761C554.656 130.996 553.3 128.405 550.87 126.988C548.401 125.571 545.142 124.781 541.093 124.619ZM529.98 145.206H545.223V152.676C544.251 153.931 541.943 154.498 538.3 154.377C534.696 154.215 531.417 151.644 528.462 146.664L529.98 145.206ZM591.498 103L583.421 108.587C584.717 110.895 585.283 116.806 585.121 126.32C583.097 125.267 581.215 124.822 579.474 124.984C577.733 125.105 575.789 125.895 573.644 127.352C571.498 128.81 569.17 130.773 566.66 133.243C564.15 135.672 562.47 139.113 561.619 143.567C560.729 148.02 561.579 152.271 564.17 156.32C566.721 160.368 569.494 162.474 572.49 162.636C575.486 162.757 579.919 159.781 585.789 153.708C585.789 157.636 587.51 160.652 590.951 162.757L598.178 156.623C595.263 155.045 594.049 145.834 594.534 128.992C594.98 112.109 593.968 103.445 591.498 103ZM570.789 133.364C575.121 133 578.138 134.822 579.838 138.83L585.304 134.093V136.522L585.486 137.555V150.368L584.939 150.551C584.17 152.251 582.348 153.202 579.474 153.405C576.599 153.648 574.008 151.826 571.7 147.939C569.352 144.093 569.049 139.235 570.789 133.364ZM619.312 125.287C615.02 124.599 610.992 125.935 607.227 129.296C603.462 132.656 601.053 136.583 600 141.077C598.947 145.571 599.271 149.741 600.972 153.587C602.672 157.474 605.83 160.227 610.445 161.846C614.211 163.101 618.138 162.211 622.227 159.174C626.275 156.138 628.947 153.283 630.243 150.611L628.968 149.64C623.381 153.486 618.927 154.761 615.607 153.466C612.328 152.17 610.385 150.692 609.777 149.032L618.826 143.142C624.656 139.538 627.267 135.814 626.66 131.968C626.093 128.162 623.644 125.935 619.312 125.287ZM606.68 137.676C606.599 135.652 607.308 133.911 608.806 132.453C610.304 130.955 612.287 130.955 614.757 132.453C617.227 133.951 618.279 135.935 617.915 138.405C617.51 140.874 614.393 143.668 608.563 146.785C607.915 145.409 607.449 144.053 607.166 142.717C606.883 141.381 606.721 139.7 606.68 137.676ZM649.251 124.802C646.376 125.247 644.028 126.057 642.206 127.231C640.385 128.405 638.826 129.619 637.53 130.874C636.235 132.17 635.263 133.972 634.615 136.279C633.968 138.587 634.555 140.571 636.377 142.231C638.239 143.891 641.296 145.166 645.547 146.057C649.798 146.947 652.632 148.02 654.049 149.275C655.425 150.571 656.174 151.765 656.296 152.858C656.417 153.992 655.972 154.761 654.96 155.166C653.947 155.53 652.429 155.571 650.405 155.287C648.34 154.964 646.356 154.316 644.453 153.344C642.591 152.413 640.972 151.259 639.595 149.883C638.259 148.547 638.158 147.271 639.291 146.057L638.381 145.51L631.943 151.036C631.417 152.494 631.964 154.174 633.583 156.077C635.202 157.98 637.267 159.457 639.777 160.51C642.247 161.563 644.798 162.17 647.429 162.332C650.02 162.494 652.611 161.725 655.202 160.024C657.794 158.324 659.696 156.36 660.911 154.134C662.166 151.947 662.652 149.741 662.368 147.514C662.126 145.287 661.275 143.344 659.818 141.684C658.36 139.984 655.263 138.466 650.526 137.13C645.749 135.794 642.976 134.356 642.206 132.818C641.437 131.239 642.024 130.308 643.968 130.024C645.911 129.741 648.239 130.247 650.951 131.543C653.624 132.879 654.494 134.134 653.563 135.308L654.109 135.915L660.304 130.024C659.899 128.162 658.684 126.725 656.66 125.713C654.595 124.66 652.125 124.356 649.251 124.802Z" fill="white"/>
<path d="M317.462 0H299.231C292.423 0 287 5.42308 287 12.2308V30.5769C287 37.2692 292.423 42.6923 299.231 42.6923H317.577C324.269 42.6923 329.692 37.2692 329.692 30.4615V12.2308C329.692 5.42308 324.269 0 317.462 0ZM346.538 42.6923H364.885C371.577 42.6923 377 37.2692 377 30.4615V12.2308C377 5.42308 371.577 0 364.769 0H346.538C339.731 0 334.308 5.42308 334.308 12.2308V30.5769C334.308 37.2692 339.731 42.6923 346.538 42.6923ZM317.462 47.3077H299.231C292.423 47.3077 287 52.7308 287 59.5385V77.8846C287 84.5769 292.423 90 299.231 90H317.577C324.269 90 329.692 84.5769 329.692 77.7692V59.5385C329.692 52.7308 324.269 47.3077 317.462 47.3077Z" fill="white"/>
<path d="M355.654 89.9999C367.443 89.9999 377 80.4429 377 68.6538C377 56.8646 367.443 47.3076 355.654 47.3076C343.865 47.3076 334.308 56.8646 334.308 68.6538C334.308 80.4429 343.865 89.9999 355.654 89.9999Z" fill="white"/>
</g>
<defs>
<clipPath id="clip0_615_138">
<rect width="662.447" height="163" fill="white"/>
</clipPath>
</defs>
</svg>
